<svg xmlns="http://www.w3.org/2000/svg" viewBox="0 0 400 580" width="400" height="580">
  <defs>
    <linearGradient id="cardBg" x1="0%" y1="0%" x2="0%" y2="100%">
      <stop offset="0%" stop-color="#f7ebc0"/>
      <stop offset="50%" stop-color="#e8d48b"/>
      <stop offset="100%" stop-color="#c9a227"/>
    </linearGradient>
    <linearGradient id="topArea" x1="0%" y1="0%" x2="100%" y2="100%">
      <stop offset="0%" stop-color="#f7ebc0"/>
      <stop offset="100%" stop-color="#dcc76e"/>
    </linearGradient>
  </defs>

  <!-- FIFA Card Shape - Wider for content -->
  <path d="M 25 30 
           C 25 12, 42 5, 60 5 
           L 340 5 
           C 358 5, 375 12, 375 30 
           L 390 230 
           C 393 270, 378 310, 355 350 
           L 280 490 
           C 250 540, 200 560, 200 560 
           C 200 560, 150 540, 120 490 
           L 45 350 
           C 22 310, 7 270, 10 230 
           Z" 
        fill="url(#cardBg)" 
        stroke="#a07818" 
        stroke-width="2"/>

  <!-- Top Section -->
  <path d="M 30 35 
           C 30 20, 45 14, 62 14 
           L 338 14 
           C 355 14, 370 20, 370 35 
           L 383 225 
           C 385 258, 373 290, 355 315 
           L 200 315 
           L 45 315 
           C 27 290, 15 258, 17 225 
           Z" 
        fill="url(#topArea)"/>

  <!-- Diagonal Lines -->
  <line x1="170" y1="190" x2="360" y2="70" stroke="#c9a227" stroke-width="1.5" opacity="0.3"/>
  <line x1="150" y1="170" x2="340" y2="50" stroke="#c9a227" stroke-width="1" opacity="0.2"/>

  <!-- Number -->
  <text x="55" y="100" font-family="Arial Black, Impact, sans-serif" font-size="75" font-weight="900" fill="#4a3510">31</text>
  
  <!-- Position -->
  <text x="58" y="130" font-family="Arial, sans-serif" font-size="20" font-weight="700" fill="#5a3d1a" letter-spacing="3">REPOS</text>

  <!-- Indian Flag -->
  <g transform="translate(58, 145)">
    <rect width="55" height="33" rx="2" fill="white" stroke="#ddd" stroke-width="0.5"/>
    <rect width="55" height="11" fill="#FF9933"/>
    <rect y="11" width="55" height="11" fill="#FFFFFF"/>
    <rect y="22" width="55" height="11" fill="#138808"/>
    <circle cx="27.5" cy="16.5" r="5" fill="#000080"/>
    <circle cx="27.5" cy="16.5" r="2.5" fill="white"/>
    <circle cx="27.5" cy="16.5" r="1" fill="#000080"/>
  </g>

  <!-- GitHub Badge -->
  <g transform="translate(58, 190)">
    <circle cx="20" cy="20" r="20" fill="#c41e3a"/>
    <circle cx="20" cy="20" r="14" fill="white"/>
    <path d="M20 11C15.58 11 12 14.58 12 19c0 3.54 2.29 6.53 5.47 7.59.4.07.55-.17.55-.38 0-.19-.01-.82-.01-1.49-2.01.37-2.53-.49-2.69-.94-.09-.23-.48-.94-.82-1.13-.28-.15-.68-.52-.01-.53.63-.01 1.08.58 1.23.82.72 1.21 1.87.87 2.33.66.07-.52.28-.87.51-1.07-1.78-.2-3.64-.89-3.64-3.95 0-.87.31-1.59.82-2.15-.08-.2-.36-1.02.08-2.12 0 0 .67-.21 2.2.82.64-.18 1.32-.27 2-.27.68 0 1.36.09 2 .27 1.53-1.04 2.2-.82 2.2-.82.44 1.1.16 1.92.08 2.12.51.56.82 1.27.82 2.15 0 3.07-1.87 3.75-3.65 3.95.29.25.54.73.54 1.48 0 1.07-.01 1.93-.01 2.2 0 .21.15.46.55.38A8.013 8.013 0 0028 19c0-4.42-3.58-8-8-8z" fill="#333" transform="translate(4,4) scale(0.8)"/>
  </g>

  <!-- Silhouette -->
  <ellipse cx="300" cy="150" rx="60" ry="70" fill="#c9a227" opacity="0.12"/>

  <!-- Name -->
  <text x="200" y="355" font-family="Arial Black, Impact, sans-serif" font-size="28" font-weight="900" fill="#4a3510" text-anchor="middle">HIMANSHU BAGGA</text>

  <!-- Divider -->
  <line x1="80" y1="370" x2="320" y2="370" stroke="#8B6914" stroke-width="2" opacity="0.5"/>

  <!-- Stats Left -->
  <text x="65" y="405" font-family="Arial Black, Impact, sans-serif" font-size="24" font-weight="900" fill="#4a3510">600+</text>
  <text x="140" y="405" font-family="Arial, sans-serif" font-size="12" font-weight="600" fill="#5a3d1a">CONTRIBUTIONS</text>

  <text x="65" y="438" font-family="Arial Black, Impact, sans-serif" font-size="24" font-weight="900" fill="#4a3510">31</text>
  <text x="108" y="438" font-family="Arial, sans-serif" font-size="12" font-weight="600" fill="#5a3d1a">REPOS</text>

  <text x="65" y="471" font-family="Arial Black, Impact, sans-serif" font-size="24" font-weight="900" fill="#4a3510">2</text>
  <text x="93" y="471" font-family="Arial, sans-serif" font-size="12" font-weight="600" fill="#5a3d1a">INTERNSHIPS</text>

  <!-- Vertical Divider -->
  <line x1="200" y1="388" x2="200" y2="480" stroke="#8B6914" stroke-width="1" opacity="0.4"/>

  <!-- Stats Right -->
  <text x="220" y="405" font-family="Arial Black, Impact, sans-serif" font-size="24" font-weight="900" fill="#4a3510">1</text>
  <text x="245" y="405" font-family="Arial, sans-serif" font-size="12" font-weight="600" fill="#5a3d1a">RESEARCH</text>

  <text x="220" y="438" font-family="Arial Black, Impact, sans-serif" font-size="16" font-weight="900" fill="#4a3510">MS</text>
  <text x="252" y="438" font-family="Arial, sans-serif" font-size="11" font-weight="600" fill="#5a3d1a">CERTIFIED</text>

  <text x="220" y="471" font-family="Arial Black, Impact, sans-serif" font-size="16" font-weight="900" fill="#4a3510">SAP</text>
  <text x="260" y="471" font-family="Arial, sans-serif" font-size="11" font-weight="600" fill="#5a3d1a">CERTIFIED</text>

  <!-- Bottom Ball -->
  <circle cx="200" cy="525" r="14" fill="#8B6914" opacity="0.2"/>
  <text x="200" y="531" font-size="14" text-anchor="middle">⚽</text>

</svg>